<svg width="219.246" height="23.402" viewBox="0 0 219.246 23.402" xmlns="http://www.w3.org/2000/svg"><g id="svgGroup" stroke-linecap="round" fill-rule="evenodd" font-size="9pt" stroke="#1dc2b7" stroke-width="0.75mm" fill="#121212" style="stroke:#1dc2b7;stroke-width:0.75mm;fill:#121212"><path d="M 7.477 18.281 L 0 18.281 L 0 17.648 L 1.91 17.648 L 1.91 1.852 L 0 1.852 L 0 1.219 L 1.91 1.219 L 6.398 1.219 A 10.435 10.435 0 0 1 7.938 1.325 Q 9.505 1.559 10.512 2.309 Q 11.977 3.398 11.977 5.59 A 4.896 4.896 0 0 1 11.828 6.826 A 3.764 3.764 0 0 1 11.191 8.156 A 3.301 3.301 0 0 1 9.408 9.357 A 4.406 4.406 0 0 1 8.977 9.457 A 4.279 4.279 0 0 1 10.893 10.189 Q 11.742 10.781 12.246 11.666 A 3.807 3.807 0 0 1 12.75 13.582 A 5.548 5.548 0 0 1 12.571 15.031 A 3.931 3.931 0 0 1 11.303 17.051 A 4.987 4.987 0 0 1 9.193 18.093 Q 8.406 18.281 7.477 18.281 Z M 2.543 9.855 L 2.543 17.648 L 7.477 17.648 A 7.046 7.046 0 0 0 8.851 17.522 Q 9.663 17.361 10.298 16.992 A 3.873 3.873 0 0 0 10.875 16.582 Q 12.117 15.516 12.117 13.605 A 3.451 3.451 0 0 0 11.045 11.057 A 4.382 4.382 0 0 0 10.928 10.945 Q 9.873 9.979 8.067 9.869 A 7.828 7.828 0 0 0 7.594 9.855 L 2.543 9.855 Z M 2.543 1.852 L 2.543 9.223 L 6.633 9.223 A 9.59 9.59 0 0 0 7.916 9.143 Q 8.57 9.054 9.1 8.868 A 3.755 3.755 0 0 0 10.148 8.314 A 2.909 2.909 0 0 0 11.214 6.626 A 4.643 4.643 0 0 0 11.332 5.543 A 4.249 4.249 0 0 0 11.191 4.416 A 2.957 2.957 0 0 0 10.084 2.783 A 4.063 4.063 0 0 0 8.901 2.189 Q 8.35 2.01 7.679 1.926 A 10.348 10.348 0 0 0 6.398 1.852 L 2.543 1.852 Z" id="0" vector-effect="non-scaling-stroke"/><path d="M 20.555 11.203 L 23.473 11.203 L 23.473 9.586 A 4.474 4.474 0 0 0 23.322 8.396 A 3.391 3.391 0 0 0 22.559 6.996 Q 21.645 5.988 19.688 5.988 Q 18.656 5.988 17.801 6.375 A 5.973 5.973 0 0 0 16.92 6.862 A 4.811 4.811 0 0 0 16.348 7.312 L 16.348 9.387 L 15.715 9.387 L 15.715 6.973 A 6.562 6.562 0 0 1 17.467 5.807 Q 18.434 5.367 19.699 5.367 A 6.687 6.687 0 0 1 20.963 5.479 Q 21.677 5.616 22.23 5.924 A 3.283 3.283 0 0 1 22.998 6.51 A 3.81 3.81 0 0 1 23.975 8.36 A 5.639 5.639 0 0 1 24.105 9.609 L 24.105 15.727 A 11.431 11.431 0 0 0 24.146 16.699 Q 24.188 17.18 24.281 17.648 L 26.039 17.648 L 26.039 18.281 L 23.73 18.281 A 43.572 43.572 0 0 1 23.661 17.89 Q 23.595 17.511 23.556 17.237 A 10.158 10.158 0 0 1 23.525 17.01 Q 23.473 16.57 23.473 15.949 A 5.426 5.426 0 0 1 21.626 17.745 A 6.375 6.375 0 0 1 21.51 17.812 A 5.433 5.433 0 0 1 19.265 18.501 A 6.695 6.695 0 0 1 18.668 18.527 Q 17.004 18.527 16.002 17.572 A 3.185 3.185 0 0 1 15.024 15.539 A 4.381 4.381 0 0 1 15 15.07 A 3.199 3.199 0 0 1 16.107 12.602 A 4.483 4.483 0 0 1 16.506 12.281 Q 18.012 11.203 20.555 11.203 Z M 23.473 14.859 L 23.473 11.848 L 20.59 11.848 A 9.026 9.026 0 0 0 19.155 11.955 Q 18.361 12.083 17.715 12.363 A 4.589 4.589 0 0 0 16.992 12.756 A 3.488 3.488 0 0 0 16.225 13.436 A 2.571 2.571 0 0 0 15.633 15.117 A 2.682 2.682 0 0 0 15.911 16.343 A 2.726 2.726 0 0 0 16.488 17.104 A 2.932 2.932 0 0 0 18.188 17.878 A 3.971 3.971 0 0 0 18.668 17.906 A 5.235 5.235 0 0 0 21.076 17.309 A 6.378 6.378 0 0 0 21.457 17.098 A 5.042 5.042 0 0 0 23.473 14.859 Z" id="1" vector-effect="non-scaling-stroke"/><path d="M 29.32 22.676 L 29.508 22.043 A 10.008 10.008 0 0 0 30.529 22.428 A 8.194 8.194 0 0 0 31.16 22.6 A 6.951 6.951 0 0 0 32.013 22.736 Q 32.467 22.781 32.977 22.781 A 5.253 5.253 0 0 0 34.231 22.64 A 3.447 3.447 0 0 0 36.076 21.533 Q 37.148 20.285 37.148 18.117 L 37.148 16.277 Q 36.516 17.309 35.42 17.918 A 4.749 4.749 0 0 1 33.897 18.442 A 6.313 6.313 0 0 1 32.836 18.527 A 4.787 4.787 0 0 1 31.513 18.352 A 3.919 3.919 0 0 1 30.281 17.754 Q 29.215 16.98 28.646 15.551 Q 28.114 14.21 28.08 12.417 A 12.988 12.988 0 0 1 28.078 12.176 L 28.078 11.93 A 12.025 12.025 0 0 1 28.183 10.298 Q 28.301 9.441 28.55 8.71 A 7.026 7.026 0 0 1 28.646 8.443 A 5.864 5.864 0 0 1 29.265 7.248 A 4.499 4.499 0 0 1 30.287 6.17 A 4.015 4.015 0 0 1 32.301 5.397 A 5.184 5.184 0 0 1 32.859 5.367 A 5.45 5.45 0 0 1 34.164 5.517 A 4.247 4.247 0 0 1 35.443 6.059 Q 36.527 6.75 37.16 7.945 L 37.254 5.602 L 37.793 5.602 L 37.793 18.117 A 7.628 7.628 0 0 1 37.682 19.45 A 5.56 5.56 0 0 1 37.213 20.924 A 4.389 4.389 0 0 1 36.19 22.295 A 4.178 4.178 0 0 1 35.561 22.758 A 4.436 4.436 0 0 1 34.016 23.319 A 5.956 5.956 0 0 1 33 23.402 A 9.806 9.806 0 0 1 31.568 23.294 A 11.401 11.401 0 0 1 31.072 23.209 A 9.337 9.337 0 0 1 30.188 22.996 Q 29.748 22.865 29.37 22.698 A 5.77 5.77 0 0 1 29.32 22.676 Z M 37.148 15.047 L 37.148 9.293 A 5.57 5.57 0 0 0 36.167 7.452 A 5.292 5.292 0 0 0 35.701 6.949 A 3.256 3.256 0 0 0 34.363 6.198 Q 33.861 6.05 33.26 6.012 A 6.68 6.68 0 0 0 32.848 6 A 3.947 3.947 0 0 0 31.722 6.154 A 3.217 3.217 0 0 0 30.592 6.75 A 4.159 4.159 0 0 0 29.616 7.916 A 5.609 5.609 0 0 0 29.197 8.836 A 7.929 7.929 0 0 0 28.828 10.368 Q 28.723 11.102 28.723 11.93 L 28.723 12.176 A 10.723 10.723 0 0 0 28.843 13.835 Q 29.077 15.326 29.766 16.348 A 3.347 3.347 0 0 0 32.189 17.853 A 4.687 4.687 0 0 0 32.824 17.895 A 6.041 6.041 0 0 0 34.028 17.781 Q 34.927 17.598 35.596 17.121 Q 36.68 16.348 37.148 15.047 Z M 39.469 6.234 L 37.559 6.234 L 37.477 5.602 L 39.469 5.602 L 39.469 6.234 Z" id="2" vector-effect="non-scaling-stroke"/><path d="M 46.805 18.281 L 46.16 18.281 L 42.434 6.234 L 41.004 6.234 L 41.004 5.602 L 44.895 5.602 L 44.895 6.234 L 43.16 6.234 L 45.703 14.613 L 46.465 17.203 L 46.535 17.215 L 47.355 14.613 L 50.367 5.602 L 51.012 5.602 L 54.105 14.613 L 54.984 17.227 L 55.055 17.215 L 55.84 14.613 L 58.371 6.234 L 56.637 6.234 L 56.637 5.602 L 60.539 5.602 L 60.539 6.234 L 59.098 6.234 L 55.359 18.281 L 54.715 18.281 L 51.41 8.754 L 50.719 6.633 L 50.648 6.633 L 50.004 8.754 L 46.805 18.281 Z" id="3" vector-effect="non-scaling-stroke"/><path d="M 68.109 11.203 L 71.027 11.203 L 71.027 9.586 A 4.474 4.474 0 0 0 70.877 8.396 A 3.391 3.391 0 0 0 70.113 6.996 Q 69.199 5.988 67.242 5.988 Q 66.211 5.988 65.355 6.375 A 5.973 5.973 0 0 0 64.475 6.862 A 4.811 4.811 0 0 0 63.902 7.312 L 63.902 9.387 L 63.27 9.387 L 63.27 6.973 A 6.562 6.562 0 0 1 65.021 5.807 Q 65.988 5.367 67.254 5.367 A 6.687 6.687 0 0 1 68.518 5.479 Q 69.232 5.616 69.785 5.924 A 3.283 3.283 0 0 1 70.553 6.51 A 3.81 3.81 0 0 1 71.529 8.36 A 5.639 5.639 0 0 1 71.66 9.609 L 71.66 15.727 A 11.431 11.431 0 0 0 71.701 16.699 Q 71.742 17.18 71.836 17.648 L 73.594 17.648 L 73.594 18.281 L 71.285 18.281 A 43.572 43.572 0 0 1 71.215 17.89 Q 71.149 17.511 71.11 17.237 A 10.158 10.158 0 0 1 71.08 17.01 Q 71.027 16.57 71.027 15.949 A 5.426 5.426 0 0 1 69.18 17.745 A 6.375 6.375 0 0 1 69.064 17.812 A 5.433 5.433 0 0 1 66.82 18.501 A 6.695 6.695 0 0 1 66.223 18.527 Q 64.559 18.527 63.557 17.572 A 3.185 3.185 0 0 1 62.579 15.539 A 4.381 4.381 0 0 1 62.555 15.07 A 3.199 3.199 0 0 1 63.662 12.602 A 4.483 4.483 0 0 1 64.061 12.281 Q 65.566 11.203 68.109 11.203 Z M 71.027 14.859 L 71.027 11.848 L 68.145 11.848 A 9.026 9.026 0 0 0 66.71 11.955 Q 65.916 12.083 65.27 12.363 A 4.589 4.589 0 0 0 64.547 12.756 A 3.488 3.488 0 0 0 63.78 13.436 A 2.571 2.571 0 0 0 63.187 15.117 A 2.682 2.682 0 0 0 63.466 16.343 A 2.726 2.726 0 0 0 64.043 17.104 A 2.932 2.932 0 0 0 65.743 17.878 A 3.971 3.971 0 0 0 66.223 17.906 A 5.235 5.235 0 0 0 68.631 17.309 A 6.378 6.378 0 0 0 69.012 17.098 A 5.042 5.042 0 0 0 71.027 14.859 Z" id="4" vector-effect="non-scaling-stroke"/><path d="M 79.91 18.281 L 75.457 18.281 L 75.457 17.648 L 77.367 17.648 L 77.367 6.234 L 75.457 6.234 L 75.457 5.602 L 77.906 5.602 L 77.988 8.215 A 5.076 5.076 0 0 1 78.747 6.944 A 4.332 4.332 0 0 1 79.664 6.111 Q 80.766 5.367 82.383 5.367 Q 84.457 5.367 85.494 6.674 A 3.957 3.957 0 0 1 86.106 7.81 Q 86.489 8.881 86.527 10.461 A 14.725 14.725 0 0 1 86.531 10.816 L 86.531 17.648 L 88.441 17.648 L 88.441 18.281 L 83.988 18.281 L 83.988 17.648 L 85.898 17.648 L 85.898 10.793 Q 85.898 8.596 85.244 7.481 A 2.642 2.642 0 0 0 84.955 7.078 A 3.101 3.101 0 0 0 82.907 6.029 A 4.395 4.395 0 0 0 82.395 6 Q 80.763 6 79.769 6.775 A 3.198 3.198 0 0 0 79.301 7.225 A 5.378 5.378 0 0 0 78.287 9.074 A 7.332 7.332 0 0 0 78 10.359 L 78 17.648 L 79.91 17.648 L 79.91 18.281 Z" id="5" vector-effect="non-scaling-stroke"/><path d="M 91.957 5.133 L 91.371 5.133 L 91.547 2.004 L 91.547 0 L 92.191 0 L 92.191 1.98 L 91.957 5.133 Z" id="6" vector-effect="non-scaling-stroke"/><path d="M 94.629 16.852 L 94.629 14.59 L 95.262 14.59 L 95.262 16.5 A 3.946 3.946 0 0 0 96.909 17.545 A 4.633 4.633 0 0 0 96.973 17.566 A 6.963 6.963 0 0 0 99.023 17.894 A 7.817 7.817 0 0 0 99.129 17.895 A 6.113 6.113 0 0 0 100.252 17.798 Q 101.241 17.613 101.918 17.074 A 3.271 3.271 0 0 0 102.484 16.508 A 2.143 2.143 0 0 0 102.949 15.176 A 2.313 2.313 0 0 0 102.485 13.794 A 3.345 3.345 0 0 0 102.088 13.342 Q 101.227 12.516 99.082 12.047 Q 97.147 11.642 96.171 11.017 A 3.33 3.33 0 0 1 95.889 10.816 A 2.466 2.466 0 0 1 94.993 9.285 A 3.726 3.726 0 0 1 94.934 8.602 A 2.885 2.885 0 0 1 95.426 6.955 A 3.15 3.15 0 0 1 96.348 6.064 A 4.063 4.063 0 0 1 96.838 5.795 Q 97.731 5.38 98.95 5.368 A 7.399 7.399 0 0 1 99.023 5.367 A 6.691 6.691 0 0 1 100.265 5.477 A 5.082 5.082 0 0 1 101.42 5.836 A 5.41 5.41 0 0 1 102.794 6.717 A 4.991 4.991 0 0 1 103.172 7.09 L 103.172 9.457 L 102.539 9.457 L 102.539 7.406 A 4.14 4.14 0 0 0 101.098 6.363 A 3.983 3.983 0 0 0 100.291 6.115 Q 99.9 6.036 99.447 6.011 A 7.784 7.784 0 0 0 99.023 6 A 5.935 5.935 0 0 0 98.053 6.074 Q 97.545 6.158 97.14 6.339 A 2.601 2.601 0 0 0 96.434 6.797 A 3.073 3.073 0 0 0 95.922 7.394 A 2.152 2.152 0 0 0 95.566 8.578 A 2.728 2.728 0 0 0 95.638 9.217 A 2.189 2.189 0 0 0 95.854 9.773 Q 96.066 10.155 96.558 10.476 A 4.051 4.051 0 0 0 96.938 10.693 A 5.6 5.6 0 0 0 97.508 10.94 Q 98.214 11.204 99.27 11.438 A 12.456 12.456 0 0 1 100.501 11.771 Q 101.112 11.973 101.604 12.221 A 5.021 5.021 0 0 1 102.492 12.785 A 2.854 2.854 0 0 1 103.569 14.862 A 3.981 3.981 0 0 1 103.582 15.187 A 2.852 2.852 0 0 1 102.649 17.361 A 3.671 3.671 0 0 1 102.363 17.602 A 4.296 4.296 0 0 1 100.843 18.324 Q 100.242 18.483 99.534 18.518 A 8.261 8.261 0 0 1 99.129 18.527 A 7.509 7.509 0 0 1 97.446 18.345 A 6.491 6.491 0 0 1 96.58 18.082 A 5.937 5.937 0 0 1 95.359 17.454 A 4.999 4.999 0 0 1 94.629 16.852 Z" id="7" vector-effect="non-scaling-stroke"/><path d="M 120.68 18.281 L 116.227 18.281 L 116.227 17.648 L 118.137 17.648 L 118.137 1.852 L 112.559 1.852 L 112.559 4.652 L 111.926 4.652 L 111.926 1.219 L 124.98 1.219 L 124.98 4.652 L 124.348 4.652 L 124.348 1.852 L 118.77 1.852 L 118.77 17.648 L 120.68 17.648 L 120.68 18.281 Z" id="9" vector-effect="non-scaling-stroke"/><path d="M 130.57 18.281 L 126.117 18.281 L 126.117 17.648 L 128.027 17.648 L 128.027 6.234 L 126.117 6.234 L 126.117 5.602 L 128.543 5.602 L 128.66 7.805 L 128.66 8.238 A 5.123 5.123 0 0 1 129.316 7.03 A 4.213 4.213 0 0 1 130.23 6.123 A 3.913 3.913 0 0 1 131.87 5.445 A 5.319 5.319 0 0 1 132.797 5.367 Q 133.066 5.367 133.412 5.414 A 8.157 8.157 0 0 1 133.574 5.438 Q 133.799 5.473 133.922 5.508 L 133.852 6.07 L 132.797 5.988 A 4.285 4.285 0 0 0 131.499 6.176 A 3.457 3.457 0 0 0 130.037 7.084 A 4.892 4.892 0 0 0 128.97 8.81 A 6.672 6.672 0 0 0 128.66 9.973 L 128.66 17.648 L 130.57 17.648 L 130.57 18.281 Z" id="10" vector-effect="non-scaling-stroke"/><path d="M 141.492 11.203 L 144.41 11.203 L 144.41 9.586 A 4.474 4.474 0 0 0 144.259 8.396 A 3.391 3.391 0 0 0 143.496 6.996 Q 142.582 5.988 140.625 5.988 Q 139.594 5.988 138.738 6.375 A 5.973 5.973 0 0 0 137.857 6.862 A 4.811 4.811 0 0 0 137.285 7.312 L 137.285 9.387 L 136.652 9.387 L 136.652 6.973 A 6.562 6.562 0 0 1 138.404 5.807 Q 139.371 5.367 140.637 5.367 A 6.687 6.687 0 0 1 141.9 5.479 Q 142.614 5.616 143.167 5.924 A 3.283 3.283 0 0 1 143.936 6.51 A 3.81 3.81 0 0 1 144.912 8.36 A 5.639 5.639 0 0 1 145.043 9.609 L 145.043 15.727 A 11.431 11.431 0 0 0 145.084 16.699 Q 145.125 17.18 145.219 17.648 L 146.977 17.648 L 146.977 18.281 L 144.668 18.281 A 43.572 43.572 0 0 1 144.598 17.89 Q 144.532 17.511 144.493 17.237 A 10.158 10.158 0 0 1 144.463 17.01 Q 144.41 16.57 144.41 15.949 A 5.426 5.426 0 0 1 142.563 17.745 A 6.375 6.375 0 0 1 142.447 17.812 A 5.433 5.433 0 0 1 140.203 18.501 A 6.695 6.695 0 0 1 139.605 18.527 Q 137.941 18.527 136.939 17.572 A 3.185 3.185 0 0 1 135.962 15.539 A 4.381 4.381 0 0 1 135.937 15.07 A 3.199 3.199 0 0 1 137.045 12.602 A 4.483 4.483 0 0 1 137.443 12.281 Q 138.949 11.203 141.492 11.203 Z M 144.41 14.859 L 144.41 11.848 L 141.527 11.848 A 9.026 9.026 0 0 0 140.092 11.955 Q 139.299 12.083 138.653 12.363 A 4.589 4.589 0 0 0 137.93 12.756 A 3.488 3.488 0 0 0 137.163 13.436 A 2.571 2.571 0 0 0 136.57 15.117 A 2.682 2.682 0 0 0 136.849 16.343 A 2.726 2.726 0 0 0 137.426 17.104 A 2.932 2.932 0 0 0 139.125 17.878 A 3.971 3.971 0 0 0 139.605 17.906 A 5.235 5.235 0 0 0 142.014 17.309 A 6.378 6.378 0 0 0 142.395 17.098 A 5.042 5.042 0 0 0 144.41 14.859 Z" id="11" vector-effect="non-scaling-stroke"/><path d="M 153.293 18.281 L 148.84 18.281 L 148.84 17.648 L 150.75 17.648 L 150.75 6.234 L 148.84 6.234 L 148.84 5.602 L 151.289 5.602 L 151.371 8.215 A 5.076 5.076 0 0 1 152.13 6.944 A 4.332 4.332 0 0 1 153.047 6.111 Q 154.148 5.367 155.766 5.367 Q 157.84 5.367 158.877 6.674 A 3.957 3.957 0 0 1 159.488 7.81 Q 159.872 8.881 159.91 10.461 A 14.725 14.725 0 0 1 159.914 10.816 L 159.914 17.648 L 161.824 17.648 L 161.824 18.281 L 157.371 18.281 L 157.371 17.648 L 159.281 17.648 L 159.281 10.793 Q 159.281 8.596 158.626 7.481 A 2.642 2.642 0 0 0 158.338 7.078 A 3.101 3.101 0 0 0 156.29 6.029 A 4.395 4.395 0 0 0 155.777 6 Q 154.146 6 153.152 6.775 A 3.198 3.198 0 0 0 152.684 7.225 A 5.378 5.378 0 0 0 151.67 9.074 A 7.332 7.332 0 0 0 151.383 10.359 L 151.383 17.648 L 153.293 17.648 L 153.293 18.281 Z" id="12" vector-effect="non-scaling-stroke"/><path d="M 164.203 16.852 L 164.203 14.59 L 164.836 14.59 L 164.836 16.5 A 3.946 3.946 0 0 0 166.483 17.545 A 4.633 4.633 0 0 0 166.547 17.566 A 6.963 6.963 0 0 0 168.597 17.894 A 7.817 7.817 0 0 0 168.703 17.895 A 6.113 6.113 0 0 0 169.826 17.798 Q 170.815 17.613 171.492 17.074 A 3.271 3.271 0 0 0 172.058 16.508 A 2.143 2.143 0 0 0 172.523 15.176 A 2.313 2.313 0 0 0 172.059 13.794 A 3.345 3.345 0 0 0 171.662 13.342 Q 170.801 12.516 168.656 12.047 Q 166.721 11.642 165.745 11.017 A 3.33 3.33 0 0 1 165.463 10.816 A 2.466 2.466 0 0 1 164.568 9.285 A 3.726 3.726 0 0 1 164.508 8.602 A 2.885 2.885 0 0 1 165 6.955 A 3.15 3.15 0 0 1 165.922 6.064 A 4.063 4.063 0 0 1 166.412 5.795 Q 167.305 5.38 168.524 5.368 A 7.399 7.399 0 0 1 168.598 5.367 A 6.691 6.691 0 0 1 169.839 5.477 A 5.082 5.082 0 0 1 170.994 5.836 A 5.41 5.41 0 0 1 172.369 6.717 A 4.991 4.991 0 0 1 172.746 7.09 L 172.746 9.457 L 172.113 9.457 L 172.113 7.406 A 4.14 4.14 0 0 0 170.672 6.363 A 3.983 3.983 0 0 0 169.865 6.115 Q 169.474 6.036 169.022 6.011 A 7.784 7.784 0 0 0 168.598 6 A 5.935 5.935 0 0 0 167.627 6.074 Q 167.119 6.158 166.714 6.339 A 2.601 2.601 0 0 0 166.008 6.797 A 3.073 3.073 0 0 0 165.497 7.394 A 2.152 2.152 0 0 0 165.141 8.578 A 2.728 2.728 0 0 0 165.212 9.217 A 2.189 2.189 0 0 0 165.428 9.773 Q 165.64 10.155 166.132 10.476 A 4.051 4.051 0 0 0 166.512 10.693 A 5.6 5.6 0 0 0 167.082 10.94 Q 167.788 11.204 168.844 11.438 A 12.456 12.456 0 0 1 170.075 11.771 Q 170.686 11.973 171.178 12.221 A 5.021 5.021 0 0 1 172.066 12.785 A 2.854 2.854 0 0 1 173.143 14.862 A 3.981 3.981 0 0 1 173.156 15.187 A 2.852 2.852 0 0 1 172.223 17.361 A 3.671 3.671 0 0 1 171.937 17.602 A 4.296 4.296 0 0 1 170.418 18.324 Q 169.816 18.483 169.108 18.518 A 8.261 8.261 0 0 1 168.703 18.527 A 7.509 7.509 0 0 1 167.02 18.345 A 6.491 6.491 0 0 1 166.154 18.082 A 5.937 5.937 0 0 1 164.933 17.454 A 4.999 4.999 0 0 1 164.203 16.852 Z" id="13" vector-effect="non-scaling-stroke"/><path d="M 180.035 23.156 L 175.582 23.156 L 175.582 22.523 L 177.492 22.523 L 177.492 6.234 L 175.582 6.234 L 175.582 5.602 L 177.984 5.602 L 178.113 7.875 A 4.769 4.769 0 0 1 179.836 6.035 A 4.481 4.481 0 0 1 181.486 5.439 A 5.929 5.929 0 0 1 182.426 5.367 A 4.674 4.674 0 0 1 183.757 5.549 A 3.855 3.855 0 0 1 184.992 6.17 A 4.635 4.635 0 0 1 186.18 7.511 A 6.195 6.195 0 0 1 186.633 8.443 A 7.972 7.972 0 0 1 187.063 10.05 Q 187.207 10.922 187.207 11.93 L 187.207 12.176 Q 187.207 14.121 186.633 15.551 A 5.714 5.714 0 0 1 186 16.729 A 4.41 4.41 0 0 1 184.998 17.754 A 4.011 4.011 0 0 1 183.102 18.488 A 5.219 5.219 0 0 1 182.449 18.527 A 6.263 6.263 0 0 1 181.138 18.396 A 4.803 4.803 0 0 1 179.854 17.93 A 4.527 4.527 0 0 1 178.42 16.738 A 4.385 4.385 0 0 1 178.125 16.313 L 178.125 22.523 L 180.035 22.523 L 180.035 23.156 Z M 186.563 12.176 L 186.563 11.93 A 11.054 11.054 0 0 0 186.462 10.399 Q 186.344 9.556 186.088 8.836 A 5.479 5.479 0 0 0 185.587 7.779 A 4.104 4.104 0 0 0 184.693 6.75 A 3.315 3.315 0 0 0 182.943 6.029 A 4.362 4.362 0 0 0 182.437 6 Q 181.061 6 180.144 6.518 A 3.123 3.123 0 0 0 179.578 6.926 Q 178.559 7.852 178.125 9.199 L 178.125 15.129 A 4.102 4.102 0 0 0 179.695 17.145 Q 180.797 17.895 182.461 17.895 Q 184.465 17.895 185.514 16.348 Q 186.365 15.092 186.525 13.125 A 11.703 11.703 0 0 0 186.562 12.176 Z" id="14" vector-effect="non-scaling-stroke"/><path d="M 189.645 12.188 L 189.645 11.695 Q 189.645 9.832 190.348 8.408 A 5.691 5.691 0 0 1 191.538 6.773 A 5.3 5.3 0 0 1 192.299 6.176 A 5.043 5.043 0 0 1 194.635 5.391 A 6.275 6.275 0 0 1 195.188 5.367 A 5.709 5.709 0 0 1 196.826 5.595 A 4.864 4.864 0 0 1 198.088 6.176 A 5.447 5.447 0 0 1 199.949 8.233 A 6.509 6.509 0 0 1 200.039 8.408 A 6.722 6.722 0 0 1 200.651 10.413 A 8.746 8.746 0 0 1 200.742 11.695 L 200.742 12.188 A 8.392 8.392 0 0 1 200.566 13.942 A 6.586 6.586 0 0 1 200.039 15.48 A 5.748 5.748 0 0 1 198.917 17.057 A 5.266 5.266 0 0 1 198.094 17.719 Q 196.852 18.527 195.211 18.527 A 5.651 5.651 0 0 1 193.491 18.273 A 4.951 4.951 0 0 1 192.311 17.719 Q 191.051 16.91 190.348 15.48 A 6.785 6.785 0 0 1 189.73 13.431 A 8.794 8.794 0 0 1 189.645 12.187 Z M 200.109 12.188 L 200.109 11.695 A 6.852 6.852 0 0 0 199.848 9.777 A 6.101 6.101 0 0 0 199.494 8.848 A 5.361 5.361 0 0 0 198.298 7.201 A 5.115 5.115 0 0 0 197.777 6.779 A 4.249 4.249 0 0 0 195.643 6.019 A 5.361 5.361 0 0 0 195.187 6 Q 193.699 6 192.592 6.779 A 5.14 5.14 0 0 0 190.881 8.848 A 6.464 6.464 0 0 0 190.295 11.168 A 7.712 7.712 0 0 0 190.277 11.695 L 190.277 12.188 A 7.266 7.266 0 0 0 190.489 13.972 A 6.202 6.202 0 0 0 190.881 15.076 A 5.108 5.108 0 0 0 192.027 16.676 A 4.867 4.867 0 0 0 192.598 17.133 A 4.361 4.361 0 0 0 194.662 17.868 A 5.512 5.512 0 0 0 195.211 17.895 A 4.85 4.85 0 0 0 196.621 17.697 A 4.102 4.102 0 0 0 197.795 17.127 A 5.078 5.078 0 0 0 199.412 15.244 A 6.045 6.045 0 0 0 199.5 15.064 A 6.457 6.457 0 0 0 200.084 12.818 A 7.79 7.79 0 0 0 200.109 12.188 Z" id="15" vector-effect="non-scaling-stroke"/><path d="M 207.457 18.281 L 203.004 18.281 L 203.004 17.648 L 204.914 17.648 L 204.914 6.234 L 203.004 6.234 L 203.004 5.602 L 205.43 5.602 L 205.547 7.805 L 205.547 8.238 A 5.123 5.123 0 0 1 206.203 7.03 A 4.213 4.213 0 0 1 207.117 6.123 A 3.913 3.913 0 0 1 208.757 5.445 A 5.319 5.319 0 0 1 209.684 5.367 Q 209.953 5.367 210.299 5.414 A 8.157 8.157 0 0 1 210.46 5.438 Q 210.686 5.473 210.809 5.508 L 210.738 6.07 L 209.684 5.988 A 4.285 4.285 0 0 0 208.386 6.176 A 3.457 3.457 0 0 0 206.924 7.084 A 4.892 4.892 0 0 0 205.857 8.81 A 6.672 6.672 0 0 0 205.547 9.973 L 205.547 17.648 L 207.457 17.648 L 207.457 18.281 Z" id="16" vector-effect="non-scaling-stroke"/><path d="M 215.086 15.012 L 215.086 6.246 L 212.742 6.246 L 212.742 5.602 L 215.086 5.602 L 215.086 2.18 L 215.73 2.18 L 215.73 5.602 L 218.848 5.602 L 218.848 6.246 L 215.73 6.246 L 215.73 15.012 A 7.278 7.278 0 0 0 215.768 15.776 Q 215.871 16.746 216.258 17.232 A 1.674 1.674 0 0 0 217.467 17.887 A 2.135 2.135 0 0 0 217.652 17.895 A 10.356 10.356 0 0 0 217.965 17.89 Q 218.108 17.886 218.236 17.877 A 6.113 6.113 0 0 0 218.32 17.871 Q 218.545 17.853 218.899 17.815 A 47.001 47.001 0 0 0 219.129 17.789 L 219.246 18.363 Q 218.895 18.457 218.525 18.492 A 7.384 7.384 0 0 1 218.157 18.517 Q 217.937 18.527 217.688 18.527 A 3.119 3.119 0 0 1 216.899 18.433 A 2.109 2.109 0 0 1 215.748 17.695 A 2.498 2.498 0 0 1 215.359 16.97 Q 215.086 16.201 215.086 15.012 Z" id="17" vector-effect="non-scaling-stroke"/></g></svg>